<svg width="154" height="24" viewBox="0 0 154 24" fill="none" xmlns="http://www.w3.org/2000/svg">
<path d="M0 14.7101C0 13.9417 0.107738 13.4502 0.255877 12.848H4.42397C4.29603 13.3256 4.23543 13.7479 4.23543 14.0733C4.23543 15.0909 4.88859 15.6931 6.22184 15.6931C7.75037 15.6931 9.04995 15.1393 9.04995 13.831C9.04995 12.7718 7.6965 12.045 5.80436 11.3112C3.79775 10.5221 1.71033 9.35217 1.71033 6.92933C1.71033 3.12892 5.08386 0.761459 9.04322 0.761459C12.3359 0.761459 14.7129 2.36054 14.7129 4.97029C14.7129 5.62792 14.585 6.31324 14.4772 6.70089H10.3091C10.3697 6.45168 10.464 6.00865 10.464 5.60715C10.464 4.65878 9.83105 4.10499 8.5382 4.10499C6.94907 4.10499 5.80436 4.74185 5.80436 6.11941C5.80436 7.137 7.06354 7.7531 8.90855 8.50764C11.3596 9.50447 13.218 10.6467 13.218 13.0695C13.218 16.9114 9.84452 19.0436 5.70336 19.0436C2.47123 19.0574 0 17.5068 0 14.7101Z" fill="#6324BB"/>
<path d="M14.9553 13.5956C14.9553 8.98529 18.5174 5.75945 23.0087 5.75945C26.6718 5.75945 28.9949 7.95385 28.9949 11.1797C28.9949 15.8246 25.3991 19.0366 20.928 19.0366C17.2784 19.0436 14.9553 16.8561 14.9553 13.5956ZM24.7527 11.4981C24.7527 9.98904 24.0726 9.06144 22.5912 9.06144C20.5375 9.06144 19.2042 10.9582 19.2042 13.2841C19.2042 14.8347 19.8843 15.7554 21.3657 15.7554C23.3858 15.7554 24.7527 13.8448 24.7527 11.4981Z" fill="#6324BB"/>
<path d="M30.4089 15.6377C30.4089 15.0009 30.5032 14.3294 30.6917 13.4641L32.2337 6.01557H36.3884L35.0551 12.3634C34.9002 13.111 34.8127 13.6579 34.8127 14.1148C34.8127 14.9039 35.21 15.4439 36.2402 15.4439C37.661 15.4439 38.7586 14.184 39.1828 12.6819L40.5699 6.00865H44.7246L42.5563 16.4615C42.2803 17.7975 41.1288 18.7597 39.7956 18.7597H37.9236L38.2738 17.0222C37.156 18.2682 35.6342 19.0159 33.8835 19.0159C31.3382 19.0089 30.4089 17.5691 30.4089 15.6377Z" fill="#6324BB"/>
<path d="M47.1621 6.00865H51.3168L50.9329 7.87078C52.1113 6.54168 53.7341 5.75945 55.4849 5.75945C57.9965 5.75945 59.1479 7.11624 59.1479 9.22757C59.1479 10.259 58.8584 11.685 58.3803 13.9694L57.8416 16.4684C57.5521 17.8044 56.4074 18.7528 55.0741 18.7528H53.1954L54.293 13.5679C54.5758 12.2388 54.7105 11.4566 54.7105 10.889C54.7105 9.98904 54.293 9.33833 53.0204 9.33833C51.5524 9.33833 50.5357 10.3075 50.1047 11.8442L48.6839 18.7459H44.5293L47.1621 6.00865Z" fill="#6324BB"/>
<path d="M60.4475 13.8241C60.4475 9.44217 63.5315 5.75945 67.6525 5.75945C69.1204 5.75945 70.3257 6.39631 71.0866 7.46236L72.6218 0H76.8034L73.3895 16.4615C73.1134 17.7975 71.962 18.7597 70.6287 18.7597H68.7433L69.0328 17.3476C67.8545 18.4136 66.4269 19.0643 64.986 19.0643C62.2252 19.0574 60.4475 17.2091 60.4475 13.8241ZM66.831 15.4093C68.0901 15.4093 69.5379 14.4886 69.9621 12.8895L70.1843 11.8096C70.2045 11.6297 70.2314 11.4358 70.2314 11.3043C70.2314 9.99596 69.2146 9.27603 68.0969 9.27603C66.0768 9.27603 64.7705 10.9443 64.7705 13.0764C64.7705 14.6063 65.6189 15.4093 66.831 15.4093Z" fill="#6324BB"/>
<path d="M76.0156 14.7101C76.0156 13.9417 76.1234 13.4502 76.2715 12.848H80.4396C80.3117 13.3256 80.2511 13.7479 80.2511 14.0733C80.2511 15.0909 80.9042 15.6931 82.2375 15.6931C83.766 15.6931 85.0656 15.1393 85.0656 13.831C85.0656 12.7718 83.7121 12.045 81.82 11.3112C79.8134 10.5221 77.726 9.35217 77.726 6.92933C77.726 3.12892 81.0995 0.761459 85.0588 0.761459C88.3516 0.761459 90.7285 2.36054 90.7285 4.97029C90.7285 5.62792 90.6006 6.31324 90.4929 6.70089H86.3248C86.3854 6.45168 86.4796 6.00865 86.4796 5.60715C86.4796 4.65878 85.8467 4.10499 84.5538 4.10499C82.9647 4.10499 81.82 4.74185 81.82 6.11941C81.82 7.137 83.0792 7.7531 84.9242 8.50764C87.3752 9.50447 89.2337 10.6467 89.2337 13.0695C89.2337 16.9114 85.8601 19.0436 81.719 19.0436C78.4869 19.0574 76.0156 17.5068 76.0156 14.7101Z" fill="#6324BB"/>
<path d="M90.9373 13.8241C90.9373 9.44217 94.0212 5.75945 98.1422 5.75945C99.6034 5.75945 100.815 6.39631 101.563 7.44851L101.866 6.00865H106.034L102.795 21.6879C102.519 23.0309 101.361 24 100.021 24H98.1489L99.5159 17.3545C98.3509 18.4136 96.9234 19.0574 95.4757 19.0574C92.7082 19.0574 90.9373 17.2091 90.9373 13.8241ZM97.3207 15.4093C98.5597 15.4093 99.9737 14.5232 100.425 12.9864L100.681 11.7058C100.708 11.5604 100.714 11.4081 100.714 11.3112C100.714 10.0029 99.6977 9.28295 98.5799 9.28295C96.5598 9.28295 95.2535 10.9513 95.2535 13.0834C95.2535 14.6063 96.1087 15.4093 97.3207 15.4093Z" fill="#6324BB"/>
<path d="M106.795 15.6377C106.795 15.0009 106.889 14.3294 107.078 13.4641L108.62 6.01557H112.774L111.441 12.3634C111.286 13.111 111.199 13.6579 111.199 14.1148C111.199 14.9039 111.596 15.4439 112.619 15.4439C114.047 15.4439 115.138 14.184 115.562 12.6819L116.949 6.00865H121.104L118.942 16.4546C118.666 17.7975 117.515 18.7528 116.182 18.7528H114.316L114.666 17.0153C113.549 18.2613 112.027 19.0089 110.276 19.0089C107.724 19.0089 106.795 17.5691 106.795 15.6377Z" fill="#6324BB"/>
<path d="M121.562 13.5956C121.562 9.22757 124.518 5.75945 128.645 5.75945C130.16 5.75945 131.507 6.43092 132.322 7.60773L132.652 6.01557H136.82L134.665 16.4615C134.389 17.8044 133.238 18.7597 131.904 18.7597H130.026L130.268 17.5622C129.157 18.5313 127.817 19.0643 126.437 19.0643C123.609 19.0574 121.562 17.1814 121.562 13.5956ZM128.113 15.4785C129.42 15.4785 130.726 14.6617 131.197 13.0903L131.467 11.8096C131.487 11.6504 131.5 11.4981 131.5 11.3666C131.5 10.0098 130.43 9.32449 129.305 9.32449C127.379 9.32449 125.979 10.8336 125.979 12.9934C125.979 14.6409 126.861 15.4785 128.113 15.4785Z" fill="#6324BB"/>
<path d="M137.244 13.8241C137.244 9.44217 140.328 5.75945 144.442 5.75945C145.91 5.75945 147.116 6.39631 147.876 7.46236L149.418 0H153.6L150.193 16.4546C149.917 17.7975 148.765 18.7528 147.432 18.7528H145.553L145.843 17.3406C144.665 18.4067 143.237 19.0574 141.789 19.0574C139.022 19.0574 137.244 17.2091 137.244 13.8241ZM143.628 15.4093C144.887 15.4093 146.334 14.4886 146.759 12.8895L146.981 11.8096C147.001 11.6297 147.028 11.4358 147.028 11.3043C147.028 9.99596 146.011 9.27603 144.893 9.27603C142.873 9.27603 141.567 10.9443 141.567 13.0764C141.56 14.6063 142.416 15.4093 143.628 15.4093Z" fill="#6324BB"/>
</svg>
