<svg width="24" height="24" viewBox="0 0 24 24" fill="none" xmlns="http://www.w3.org/2000/svg">
<path fill-rule="evenodd" clip-rule="evenodd" d="M7.5 6C7.5 3.51386 9.51386 1.5 12 1.5C14.4861 1.5 16.5 3.51386 16.5 6V11.5C16.5 13.9861 14.4861 16 12 16C9.51386 16 7.5 13.9861 7.5 11.5V6ZM12 2.5C10.0661 2.5 8.5 4.06614 8.5 6V11.5C8.5 13.4339 10.0661 15 12 15C13.9339 15 15.5 13.4339 15.5 11.5V6C15.5 4.06614 13.9339 2.5 12 2.5Z" fill="#292D32"/>
<path fill-rule="evenodd" clip-rule="evenodd" d="M4.35001 9.1499C4.62615 9.1499 4.85001 9.37376 4.85001 9.6499V11.3499C4.85001 15.2938 8.05615 18.4999 12 18.4999C15.9439 18.4999 19.15 15.2938 19.15 11.3499V9.6499C19.15 9.37376 19.3739 9.1499 19.65 9.1499C19.9261 9.1499 20.15 9.37376 20.15 9.6499V11.3499C20.15 15.846 16.4961 19.4999 12 19.4999C7.50386 19.4999 3.85001 15.846 3.85001 11.3499V9.6499C3.85001 9.37376 4.07386 9.1499 4.35001 9.1499Z" fill="#292D32"/>
<path fill-rule="evenodd" clip-rule="evenodd" d="M13.2179 6.89956C12.429 6.6103 11.571 6.6103 10.7821 6.89956C10.5229 6.99462 10.2356 6.86151 10.1406 6.60224C10.0455 6.34298 10.1786 6.05574 10.4379 5.96068C11.449 5.58993 12.551 5.58993 13.5621 5.96068C13.8214 6.05574 13.9545 6.34298 13.8594 6.60224C13.7644 6.86151 13.4771 6.99462 13.2179 6.89956Z" fill="#292D32"/>
<path fill-rule="evenodd" clip-rule="evenodd" d="M12.6823 9.03324C12.236 8.91535 11.774 8.91535 11.3277 9.03324C11.0607 9.10377 10.7871 8.9445 10.7166 8.67752C10.6461 8.41053 10.8053 8.13693 11.0723 8.06641C11.686 7.9043 12.324 7.9043 12.9377 8.06641C13.2047 8.13693 13.364 8.41053 13.2934 8.67752C13.2229 8.9445 12.9493 9.10377 12.6823 9.03324Z" fill="#292D32"/>
<path fill-rule="evenodd" clip-rule="evenodd" d="M12 18.5C12.2761 18.5 12.5 18.7239 12.5 19V22C12.5 22.2761 12.2761 22.5 12 22.5C11.7239 22.5 11.5 22.2761 11.5 22V19C11.5 18.7239 11.7239 18.5 12 18.5Z" fill="#292D32"/>
</svg>
