<svg width="24" height="24" viewBox="0 0 24 24" fill="none" xmlns="http://www.w3.org/2000/svg">
<path fill-rule="evenodd" clip-rule="evenodd" d="M8 1.5C8.27614 1.5 8.5 1.72386 8.5 2V5C8.5 5.27614 8.27614 5.5 8 5.5C7.72386 5.5 7.5 5.27614 7.5 5V2C7.5 1.72386 7.72386 1.5 8 1.5Z" fill="#292D32"/>
<path fill-rule="evenodd" clip-rule="evenodd" d="M16 1.5C16.2761 1.5 16.5 1.72386 16.5 2V5C16.5 5.27614 16.2761 5.5 16 5.5C15.7239 5.5 15.5 5.27614 15.5 5V2C15.5 1.72386 15.7239 1.5 16 1.5Z" fill="#292D32"/>
<path fill-rule="evenodd" clip-rule="evenodd" d="M3 9.08984C3 8.8137 3.22386 8.58984 3.5 8.58984H20.5C20.7761 8.58984 21 8.8137 21 9.08984C21 9.36599 20.7761 9.58984 20.5 9.58984H3.5C3.22386 9.58984 3 9.36599 3 9.08984Z" fill="#292D32"/>
<path fill-rule="evenodd" clip-rule="evenodd" d="M4.5539 5.21523C3.85591 5.9669 3.5 7.07665 3.5 8.5V17C3.5 18.4234 3.85591 19.5331 4.5539 20.2848C5.24565 21.0297 6.3453 21.5 8 21.5H16C17.6547 21.5 18.7543 21.0297 19.4461 20.2848C20.1441 19.5331 20.5 18.4234 20.5 17V8.5C20.5 7.07665 20.1441 5.9669 19.4461 5.21523C18.7543 4.47026 17.6547 4 16 4H8C6.3453 4 5.24565 4.47026 4.5539 5.21523ZM3.8211 4.53477C4.75435 3.52974 6.1547 3 8 3H16C17.8453 3 19.2457 3.52974 20.1789 4.53477C21.1059 5.5331 21.5 6.92335 21.5 8.5V17C21.5 18.5766 21.1059 19.9669 20.1789 20.9652C19.2457 21.9703 17.8453 22.5 16 22.5H8C6.1547 22.5 4.75435 21.9703 3.8211 20.9652C2.89409 19.9669 2.5 18.5766 2.5 17V8.5C2.5 6.92335 2.89409 5.5331 3.8211 4.53477Z" fill="#292D32"/>
<path fill-rule="evenodd" clip-rule="evenodd" d="M14.9447 13.7002C14.9447 13.286 15.2805 12.9502 15.6947 12.9502H15.7037C16.1179 12.9502 16.4537 13.286 16.4537 13.7002C16.4537 14.1144 16.1179 14.4502 15.7037 14.4502H15.6947C15.2805 14.4502 14.9447 14.1144 14.9447 13.7002Z" fill="#292D32"/>
<path fill-rule="evenodd" clip-rule="evenodd" d="M14.9447 16.7002C14.9447 16.286 15.2805 15.9502 15.6947 15.9502H15.7037C16.1179 15.9502 16.4537 16.286 16.4537 16.7002C16.4537 17.1144 16.1179 17.4502 15.7037 17.4502H15.6947C15.2805 17.4502 14.9447 17.1144 14.9447 16.7002Z" fill="#292D32"/>
<path fill-rule="evenodd" clip-rule="evenodd" d="M11.2455 13.7002C11.2455 13.286 11.5813 12.9502 11.9955 12.9502H12.0045C12.4187 12.9502 12.7545 13.286 12.7545 13.7002C12.7545 14.1144 12.4187 14.4502 12.0045 14.4502H11.9955C11.5813 14.4502 11.2455 14.1144 11.2455 13.7002Z" fill="#292D32"/>
<path fill-rule="evenodd" clip-rule="evenodd" d="M11.2455 16.7002C11.2455 16.286 11.5813 15.9502 11.9955 15.9502H12.0045C12.4187 15.9502 12.7545 16.286 12.7545 16.7002C12.7545 17.1144 12.4187 17.4502 12.0045 17.4502H11.9955C11.5813 17.4502 11.2455 17.1144 11.2455 16.7002Z" fill="#292D32"/>
<path fill-rule="evenodd" clip-rule="evenodd" d="M7.54431 13.7002C7.54431 13.286 7.8801 12.9502 8.29431 12.9502H8.30329C8.71751 12.9502 9.05329 13.286 9.05329 13.7002C9.05329 14.1144 8.71751 14.4502 8.30329 14.4502H8.29431C7.8801 14.4502 7.54431 14.1144 7.54431 13.7002Z" fill="#292D32"/>
<path fill-rule="evenodd" clip-rule="evenodd" d="M7.54431 16.7002C7.54431 16.286 7.8801 15.9502 8.29431 15.9502H8.30329C8.71751 15.9502 9.05329 16.286 9.05329 16.7002C9.05329 17.1144 8.71751 17.4502 8.30329 17.4502H8.29431C7.8801 17.4502 7.54431 17.1144 7.54431 16.7002Z" fill="#292D32"/>
</svg>
