<svg width="14" height="14" viewBox="0 0 14 14" fill="none" xmlns="http://www.w3.org/2000/svg">
<path fill-rule="evenodd" clip-rule="evenodd" d="M4.33333 0C4.51743 0 4.66667 0.149238 4.66667 0.333333V2.33333C4.66667 2.51743 4.51743 2.66667 4.33333 2.66667C4.14924 2.66667 4 2.51743 4 2.33333V0.333333C4 0.149238 4.14924 0 4.33333 0Z" fill="#262626"/>
<path fill-rule="evenodd" clip-rule="evenodd" d="M9.66671 0C9.8508 0 10 0.149238 10 0.333333V2.33333C10 2.51743 9.8508 2.66667 9.66671 2.66667C9.48261 2.66667 9.33337 2.51743 9.33337 2.33333V0.333333C9.33337 0.149238 9.48261 0 9.66671 0Z" fill="#262626"/>
<path fill-rule="evenodd" clip-rule="evenodd" d="M1 5.06002C1 4.87592 1.14924 4.72668 1.33333 4.72668H12.6667C12.8508 4.72668 13 4.87592 13 5.06002C13 5.24411 12.8508 5.39335 12.6667 5.39335H1.33333C1.14924 5.39335 1 5.24411 1 5.06002Z" fill="#262626"/>
<path fill-rule="evenodd" clip-rule="evenodd" d="M2.03595 2.47682C1.57063 2.97794 1.33335 3.71776 1.33335 4.66667V10.3333C1.33335 11.2822 1.57063 12.0221 2.03595 12.5232C2.49712 13.0198 3.23022 13.3333 4.33335 13.3333H9.66669C10.7698 13.3333 11.5029 13.0198 11.9641 12.5232C12.4294 12.0221 12.6667 11.2822 12.6667 10.3333V4.66667C12.6667 3.71776 12.4294 2.97794 11.9641 2.47682C11.5029 1.98017 10.7698 1.66667 9.66669 1.66667H4.33335C3.23022 1.66667 2.49712 1.98017 2.03595 2.47682ZM1.54742 2.02318C2.16958 1.35316 3.10315 1 4.33335 1H9.66669C10.8969 1 11.8305 1.35316 12.4526 2.02318C13.0706 2.68873 13.3334 3.61557 13.3334 4.66667V10.3333C13.3334 11.3844 13.0706 12.3113 12.4526 12.9768C11.8305 13.6468 10.8969 14 9.66669 14H4.33335C3.10315 14 2.16958 13.6468 1.54742 12.9768C0.929413 12.3113 0.666687 11.3844 0.666687 10.3333V4.66667C0.666687 3.61557 0.929413 2.68873 1.54742 2.02318Z" fill="#262626"/>
<path fill-rule="evenodd" clip-rule="evenodd" d="M8.96313 8.1333C8.96313 7.85716 9.18699 7.6333 9.46313 7.6333H9.46912C9.74527 7.6333 9.96912 7.85716 9.96912 8.1333C9.96912 8.40944 9.74527 8.6333 9.46912 8.6333H9.46313C9.18699 8.6333 8.96313 8.40944 8.96313 8.1333Z" fill="#262626"/>
<path fill-rule="evenodd" clip-rule="evenodd" d="M8.96313 10.1333C8.96313 9.85716 9.18699 9.6333 9.46313 9.6333H9.46912C9.74527 9.6333 9.96912 9.85716 9.96912 10.1333C9.96912 10.4094 9.74527 10.6333 9.46912 10.6333H9.46313C9.18699 10.6333 8.96313 10.4094 8.96313 10.1333Z" fill="#262626"/>
<path fill-rule="evenodd" clip-rule="evenodd" d="M6.49701 8.1333C6.49701 7.85716 6.72087 7.6333 6.99701 7.6333H7.003C7.27914 7.6333 7.503 7.85716 7.503 8.1333C7.503 8.40944 7.27914 8.6333 7.003 8.6333H6.99701C6.72087 8.6333 6.49701 8.40944 6.49701 8.1333Z" fill="#262626"/>
<path fill-rule="evenodd" clip-rule="evenodd" d="M6.49701 10.1333C6.49701 9.85716 6.72087 9.6333 6.99701 9.6333H7.003C7.27914 9.6333 7.503 9.85716 7.503 10.1333C7.503 10.4094 7.27914 10.6333 7.003 10.6333H6.99701C6.72087 10.6333 6.49701 10.4094 6.49701 10.1333Z" fill="#262626"/>
<path fill-rule="evenodd" clip-rule="evenodd" d="M4.02954 8.1333C4.02954 7.85716 4.2534 7.6333 4.52954 7.6333H4.53553C4.81167 7.6333 5.03553 7.85716 5.03553 8.1333C5.03553 8.40944 4.81167 8.6333 4.53553 8.6333H4.52954C4.2534 8.6333 4.02954 8.40944 4.02954 8.1333Z" fill="#262626"/>
<path fill-rule="evenodd" clip-rule="evenodd" d="M4.02954 10.1333C4.02954 9.85716 4.2534 9.6333 4.52954 9.6333H4.53553C4.81167 9.6333 5.03553 9.85716 5.03553 10.1333C5.03553 10.4094 4.81167 10.6333 4.53553 10.6333H4.52954C4.2534 10.6333 4.02954 10.4094 4.02954 10.1333Z" fill="#262626"/>
</svg>
