<svg width="24" height="24" viewBox="0 0 24 24" fill="none" xmlns="http://www.w3.org/2000/svg">
<path fill-rule="evenodd" clip-rule="evenodd" d="M2 3.5C2 2.67157 2.67157 2 3.5 2H19.5C20.3284 2 21 2.67157 21 3.5V15.5C21 16.3284 20.3284 17 19.5 17H13.5L6.16918 21.5262L7 16.5H6.5H6H3.5C2.67157 16.5 2 15.8284 2 15V3.5ZM5.83191 17.5H3.5C2.11929 17.5 1 16.3807 1 15V3.5C1 2.11929 2.11929 1 3.5 1H19.5C20.8807 1 22 2.11929 22 3.5V15.5C22 16.8807 20.8807 18 19.5 18H14L6.6762 22.3881C5.94456 22.8185 5.04324 22.1991 5.18279 21.3618L5.83191 17.5Z" fill="black"/>
</svg>
