<svg width="14" height="14" viewBox="0 0 14 14" fill="none" xmlns="http://www.w3.org/2000/svg">
<path fill-rule="evenodd" clip-rule="evenodd" d="M7 4.12663C6.03535 4.12663 5.25334 4.90864 5.25334 5.87329C5.25334 6.83795 6.03535 7.61996 7 7.61996C7.96466 7.61996 8.74667 6.83795 8.74667 5.87329C8.74667 4.90864 7.96466 4.12663 7 4.12663ZM4.58667 5.87329C4.58667 4.54045 5.66716 3.45996 7 3.45996C8.33285 3.45996 9.41334 4.54045 9.41334 5.87329C9.41334 7.20614 8.33285 8.28663 7 8.28663C5.66716 8.28663 4.58667 7.20614 4.58667 5.87329Z" fill="#262626"/>
<path fill-rule="evenodd" clip-rule="evenodd" d="M7.00227 0.666668C4.66175 0.665086 2.35424 2.02684 1.73839 4.73382C1.01308 7.93831 3.00137 10.6961 4.8245 12.4532C6.04251 13.6227 7.95807 13.6218 9.16851 12.4535L9.16912 12.4529C10.9989 10.6958 12.987 7.94464 12.2616 4.74027L12.2616 4.74025C11.6489 2.0332 9.34286 0.66825 7.00227 0.666668ZM7.00272 1.51021e-06C9.5938 0.00175287 12.2178 1.52679 12.9118 4.59307C13.7197 8.16181 11.4947 11.1438 9.63122 12.9334C8.16174 14.3515 5.83769 14.3506 4.36244 12.9338L4.36202 12.9333C2.50524 11.1438 0.280357 8.15507 1.08822 4.5864L1.0883 4.58606C1.78583 1.51979 4.41161 -0.00174987 7.00272 1.51021e-06Z" fill="#262626"/>
</svg>
