<svg width="24" height="24" viewBox="0 0 24 24" fill="none" xmlns="http://www.w3.org/2000/svg">
<path fill-rule="evenodd" clip-rule="evenodd" d="M12 7.68994C10.553 7.68994 9.38 8.86296 9.38 10.3099C9.38 11.7569 10.553 12.9299 12 12.9299C13.447 12.9299 14.62 11.7569 14.62 10.3099C14.62 8.86296 13.447 7.68994 12 7.68994ZM8.38 10.3099C8.38 8.31067 10.0007 6.68994 12 6.68994C13.9993 6.68994 15.62 8.31067 15.62 10.3099C15.62 12.3092 13.9993 13.9299 12 13.9299C10.0007 13.9299 8.38 12.3092 8.38 10.3099Z" fill="#292D32"/>
<path fill-rule="evenodd" clip-rule="evenodd" d="M12.0034 2.5C8.49263 2.49763 5.03136 4.54026 4.10758 8.60074C3.01963 13.4075 6.00205 17.5441 8.73676 20.1798C10.5638 21.934 13.4371 21.9327 15.2528 20.1802L15.2537 20.1794C17.9983 17.5437 20.9804 13.417 19.8923 8.6104L19.8923 8.61037C18.9733 4.54981 15.5143 2.50238 12.0034 2.5ZM12.0041 1.5C15.8907 1.50263 19.8267 3.79019 20.8677 8.38961C22.0795 13.7427 18.7421 18.2157 15.9468 20.9001C13.7426 23.0272 10.2565 23.0259 8.04366 20.9006L8.04303 20.9C5.25786 18.2158 1.92053 13.7326 3.13234 8.37961L3.13245 8.37909C4.17874 3.77969 8.11741 1.49738 12.0041 1.5Z" fill="#292D32"/>
</svg>
