<svg width="12" height="14" viewBox="0 0 12 14" fill="none" xmlns="http://www.w3.org/2000/svg">
<path fill-rule="evenodd" clip-rule="evenodd" d="M3 3C3 1.34257 4.34257 0 6 0C7.65743 0 9 1.34257 9 3V6.66667C9 8.3241 7.65743 9.66667 6 9.66667C4.34257 9.66667 3 8.3241 3 6.66667V3ZM6 0.666667C4.71076 0.666667 3.66667 1.71076 3.66667 3V6.66667C3.66667 7.95591 4.71076 9 6 9C7.28924 9 8.33333 7.95591 8.33333 6.66667V3C8.33333 1.71076 7.28924 0.666667 6 0.666667Z" fill="#262626"/>
<path fill-rule="evenodd" clip-rule="evenodd" d="M0.899984 5.09998C1.08408 5.09998 1.23332 5.24921 1.23332 5.43331V6.56664C1.23332 9.19588 3.37075 11.3333 5.99998 11.3333C8.62922 11.3333 10.7666 9.19588 10.7666 6.56664V5.43331C10.7666 5.24921 10.9159 5.09998 11.1 5.09998C11.2841 5.09998 11.4333 5.24921 11.4333 5.43331V6.56664C11.4333 9.56407 8.99741 12 5.99998 12C3.00256 12 0.56665 9.56407 0.56665 6.56664V5.43331C0.56665 5.24921 0.715889 5.09998 0.899984 5.09998Z" fill="#262626"/>
<path fill-rule="evenodd" clip-rule="evenodd" d="M6.81187 3.59962C6.28596 3.40679 5.71395 3.40679 5.18804 3.59962C5.0152 3.663 4.82371 3.57426 4.76033 3.40142C4.69696 3.22857 4.7857 3.03708 4.95854 2.9737C5.63263 2.72654 6.36729 2.72654 7.04138 2.9737C7.21422 3.03708 7.30296 3.22857 7.23958 3.40142C7.17621 3.57426 6.98472 3.663 6.81187 3.59962Z" fill="#262626"/>
<path fill-rule="evenodd" clip-rule="evenodd" d="M6.45486 5.02224C6.15732 4.94365 5.84932 4.94365 5.55179 5.02224C5.3738 5.06926 5.19139 4.96308 5.14438 4.78509C5.09736 4.6071 5.20353 4.4247 5.38152 4.37768C5.79065 4.26961 6.21599 4.26961 6.62512 4.37768C6.80311 4.4247 6.90928 4.6071 6.86227 4.78509C6.81525 4.96308 6.63285 5.06926 6.45486 5.02224Z" fill="#262626"/>
<path fill-rule="evenodd" clip-rule="evenodd" d="M5.99996 11.3334C6.18405 11.3334 6.33329 11.4826 6.33329 11.6667V13.6667C6.33329 13.8508 6.18405 14 5.99996 14C5.81586 14 5.66663 13.8508 5.66663 13.6667V11.6667C5.66663 11.4826 5.81586 11.3334 5.99996 11.3334Z" fill="#262626"/>
</svg>
