<svg width="24" height="24" viewBox="0 0 24 24" fill="none" xmlns="http://www.w3.org/2000/svg">
<path fill-rule="evenodd" clip-rule="evenodd" d="M7.97 14.75C6.17508 14.75 4.72 16.2051 4.72 18C4.72 19.7949 6.17508 21.25 7.97 21.25C9.76493 21.25 11.22 19.7949 11.22 18C11.22 16.2051 9.76493 14.75 7.97 14.75ZM3.22 18C3.22 15.3766 5.34665 13.25 7.97 13.25C10.5934 13.25 12.72 15.3766 12.72 18C12.72 20.6234 10.5934 22.75 7.97 22.75C5.34665 22.75 3.22 20.6234 3.22 18Z" fill="#292D32"/>
<path fill-rule="evenodd" clip-rule="evenodd" d="M11.97 3.25C12.3842 3.25 12.72 3.58579 12.72 4V18C12.72 18.4142 12.3842 18.75 11.97 18.75C11.5558 18.75 11.22 18.4142 11.22 18V4C11.22 3.58579 11.5558 3.25 11.97 3.25Z" fill="#292D32"/>
<path fill-rule="evenodd" clip-rule="evenodd" d="M13.1857 2.90969C12.9374 3.08843 12.7263 3.43547 12.73 3.99483L12.73 3.99976L12.73 5.17976C12.73 5.55716 12.8811 5.99161 13.1613 6.37877C13.4412 6.76548 13.8081 7.04713 14.1681 7.16855C14.1684 7.16867 14.1688 7.1688 14.1692 7.16892L18.5857 8.63776C18.5855 8.63771 18.5859 8.63782 18.5857 8.63776C19.1245 8.81599 19.5225 8.72384 19.7698 8.54538C20.017 8.36697 20.23 8.01871 20.23 7.44976V6.27976C20.23 5.90236 20.0789 5.46792 19.7987 5.08075C19.5188 4.69405 19.1519 4.41241 18.792 4.29098C18.7916 4.29086 18.7912 4.29073 18.7908 4.29061L14.3733 2.82144L14.3699 2.82029C13.8333 2.63897 13.4342 2.73079 13.1857 2.90969ZM14.8483 1.39863C13.9355 1.09068 13.0153 1.18407 12.3093 1.69233C11.6032 2.20063 11.2244 3.04253 11.23 4.00209V5.17976C11.23 5.93236 11.5189 6.66792 11.9462 7.25825C12.3735 7.84866 12.9811 8.35183 13.6908 8.59061L13.6933 8.59144L18.1133 10.0614L18.1143 10.0618C19.0252 10.3633 19.9425 10.2706 20.6477 9.76165C21.353 9.25256 21.73 8.41081 21.73 7.44976V6.27976C21.73 5.52716 21.4411 4.79161 21.0138 4.20127C20.5865 3.61087 19.9789 3.10769 19.2692 2.86892L14.8483 1.39863Z" fill="#292D32"/>
</svg>
