<svg width="24" height="24" viewBox="0 0 24 24" fill="none" xmlns="http://www.w3.org/2000/svg">
<path fill-rule="evenodd" clip-rule="evenodd" d="M3.27145 3.27145C4.53609 2.0068 6.45069 1.5 9 1.5H15C17.5493 1.5 19.4639 2.0068 20.7286 3.27145C21.9932 4.53609 22.5 6.45069 22.5 9V15C22.5 17.5493 21.9932 19.4639 20.7286 20.7286C19.4639 21.9932 17.5493 22.5 15 22.5H9C6.45069 22.5 4.53609 21.9932 3.27145 20.7286C2.0068 19.4639 1.5 17.5493 1.5 15V9C1.5 6.45069 2.0068 4.53609 3.27145 3.27145ZM3.97855 3.97855C2.9932 4.96391 2.5 6.54931 2.5 9V15C2.5 17.4507 2.9932 19.0361 3.97855 20.0214C4.96391 21.0068 6.54931 21.5 9 21.5H15C17.4507 21.5 19.0361 21.0068 20.0214 20.0214C21.0068 19.0361 21.5 17.4507 21.5 15V9C21.5 6.54931 21.0068 4.96391 20.0214 3.97855C19.0361 2.9932 17.4507 2.5 15 2.5H9C6.54931 2.5 4.96391 2.9932 3.97855 3.97855Z" fill="#292D32"/>
<path fill-rule="evenodd" clip-rule="evenodd" d="M9.62 13.5601C8.72529 13.5601 8 14.2854 8 15.1801C8 16.0748 8.72529 16.8 9.62 16.8C10.5147 16.8 11.24 16.0748 11.24 15.1801C11.24 14.2854 10.5147 13.5601 9.62 13.5601ZM7 15.1801C7 13.7331 8.17301 12.5601 9.62 12.5601C11.067 12.5601 12.24 13.7331 12.24 15.1801C12.24 16.627 11.067 17.8 9.62 17.8C8.17301 17.8 7 16.627 7 15.1801Z" fill="#292D32"/>
<path fill-rule="evenodd" clip-rule="evenodd" d="M11.74 7.27002C12.0161 7.27002 12.24 7.49388 12.24 7.77002V15.18C12.24 15.4561 12.0161 15.68 11.74 15.68C11.4638 15.68 11.24 15.4561 11.24 15.18V7.77002C11.24 7.49388 11.4638 7.27002 11.74 7.27002Z" fill="#292D32"/>
<path fill-rule="evenodd" clip-rule="evenodd" d="M12.4401 7.27698C12.3404 7.34941 12.24 7.5007 12.24 7.76993V8.38993C12.24 8.56664 12.3103 8.77659 12.4471 8.96657C12.5838 9.15652 12.7604 9.28968 12.9281 9.34558C12.9281 9.34558 12.9281 9.34558 12.9281 9.34558L15.2681 10.1255L15.2718 10.1268C15.5258 10.2137 15.6989 10.1664 15.7984 10.095C15.8981 10.0234 16 9.87297 16 9.59989V8.9799C16 8.80318 15.9297 8.59323 15.7929 8.40326C15.6562 8.2133 15.4795 8.08014 15.3119 8.02425C15.3119 8.02425 15.3119 8.02424 15.3119 8.02424L12.9719 7.24428L12.97 7.24366C12.7112 7.15625 12.5384 7.20554 12.4401 7.27698ZM13.289 6.29588C12.7782 6.12369 12.2563 6.17452 11.8524 6.46789C11.4496 6.76045 11.24 7.23916 11.24 7.76993V8.38993C11.24 8.81322 11.3997 9.22326 11.6355 9.55079C11.8712 9.87832 12.2096 10.1602 12.6119 10.2943L12.6119 10.2943L14.9502 11.0737C15.4556 11.246 15.9766 11.198 16.3816 10.9073C16.7869 10.6164 17 10.1368 17 9.59989V8.9799C17 8.55661 16.8403 8.14656 16.6045 7.81904C16.3688 7.4915 16.0304 7.20967 15.6281 7.07556L15.6281 7.07556L13.289 6.29588Z" fill="#292D32"/>
</svg>
