<svg width="24" height="24" viewBox="0 0 24 24" fill="none" xmlns="http://www.w3.org/2000/svg">
<path fill-rule="evenodd" clip-rule="evenodd" d="M9 2.5C6.81687 2.5 5.06 4.26541 5.06 6.44C5.06 8.56159 6.72202 10.2839 8.81861 10.3692C8.93506 10.3604 9.059 10.3601 9.17288 10.3692C11.268 10.2832 12.9306 8.56159 12.94 6.43905C12.9395 4.26563 11.1735 2.5 9 2.5ZM4.06 6.44C4.06 3.71459 6.26312 1.5 9 1.5C11.7261 1.5 13.94 3.71386 13.94 6.44L13.94 6.44208C13.9289 9.10901 11.8273 11.2806 9.17679 11.3697C9.15459 11.3705 9.13236 11.3697 9.11025 11.3675C9.04476 11.361 8.95673 11.3605 8.87527 11.3679C8.85463 11.3698 8.83391 11.3704 8.8132 11.3697C6.16306 11.2806 4.06 9.10892 4.06 6.44Z" fill="#292D32"/>
<path fill-rule="evenodd" clip-rule="evenodd" d="M15.91 4C15.91 3.72386 16.1339 3.5 16.41 3.5C18.6271 3.5 20.41 5.29479 20.41 7.5C20.41 9.6603 18.6959 11.4196 16.5587 11.4997C16.5317 11.5007 16.5047 11.4995 16.478 11.4961C16.4413 11.4916 16.3909 11.4907 16.3352 11.4969C16.0608 11.5274 15.8136 11.3297 15.7831 11.0552C15.7526 10.7808 15.9503 10.5336 16.2248 10.5031C16.3336 10.491 16.4466 10.4888 16.5558 10.4989C18.1425 10.4214 19.41 9.10806 19.41 7.5C19.41 5.84521 18.0729 4.5 16.41 4.5C16.1339 4.5 15.91 4.27614 15.91 4Z" fill="#292D32"/>
<path fill-rule="evenodd" clip-rule="evenodd" d="M9.1725 12.6875C11.063 12.6875 12.978 13.1626 14.4477 14.1442C15.7616 15.0186 16.485 16.2224 16.485 17.4913C16.485 18.76 15.7617 19.9662 14.4481 20.8455L14.448 20.8456C12.9736 21.8321 11.0561 22.31 9.165 22.31C7.27418 22.31 5.3569 21.8322 3.88249 20.8459C2.56846 19.9715 1.845 18.7677 1.845 17.4987C1.845 16.23 2.5683 15.0238 3.88186 14.1445L3.88369 14.1433L3.8837 14.1433C5.36265 13.1627 7.28188 12.6875 9.1725 12.6875ZM4.43723 14.9761C3.33144 15.7167 2.845 16.6403 2.845 17.4987C2.845 18.3571 3.33134 19.2782 4.43695 20.0137L4.43805 20.0144C5.71357 20.8679 7.42606 21.31 9.165 21.31C10.9039 21.31 12.6164 20.8679 13.892 20.0144C14.9983 19.2738 15.485 18.3499 15.485 17.4913C15.485 16.6329 14.9987 15.7118 13.893 14.9763L13.8923 14.9758C12.622 14.1274 10.912 13.6875 9.1725 13.6875C7.43354 13.6875 5.71817 14.1271 4.43723 14.9761Z" fill="#292D32"/>
<path fill-rule="evenodd" clip-rule="evenodd" d="M17.8822 13.8902C17.9429 13.6208 18.2105 13.4516 18.4799 13.5123C19.2429 13.6843 19.9827 13.9892 20.6017 14.4614C21.4891 15.1276 21.97 16.0428 21.97 16.9951C21.97 17.9473 21.4893 18.8622 20.6023 19.5284C19.9746 20.0097 19.2235 20.3268 18.442 20.4896C18.1716 20.5459 17.9068 20.3724 17.8505 20.1021C17.7942 19.8317 17.9677 19.5669 18.238 19.5106C18.8956 19.3736 19.5036 19.1112 19.9955 18.7335L20 18.7301L20 18.7301C20.6715 18.2265 20.97 17.5921 20.97 16.9951C20.97 16.3981 20.6715 15.7638 20 15.2601L19.9965 15.2575L19.9965 15.2575C19.5159 14.8905 18.9164 14.6358 18.2601 14.4879C17.9907 14.4272 17.8215 14.1596 17.8822 13.8902Z" fill="#292D32"/>
</svg>
