<svg width="14" height="14" viewBox="0 0 14 14" fill="none" xmlns="http://www.w3.org/2000/svg">
<path fill-rule="evenodd" clip-rule="evenodd" d="M5 0.666667C3.54458 0.666667 2.37333 1.84361 2.37333 3.29333C2.37333 4.70772 3.48135 5.85597 4.87908 5.91282C4.9567 5.90696 5.03933 5.90673 5.11526 5.91278C6.51203 5.85543 7.62038 4.70773 7.62666 3.2927C7.62632 1.84375 6.44903 0.666667 5 0.666667ZM1.70667 3.29333C1.70667 1.47639 3.17541 0 5 0C6.81743 0 8.29333 1.47591 8.29333 3.29333L8.29333 3.29472C8.28592 5.07267 6.88487 6.52042 5.11786 6.57981C5.10306 6.58031 5.08824 6.57982 5.0735 6.57835C5.02984 6.57398 4.97115 6.57369 4.91684 6.57863C4.90309 6.57988 4.88927 6.58028 4.87547 6.57981C3.10871 6.52043 1.70667 5.07261 1.70667 3.29333Z" fill="#262626"/>
<path fill-rule="evenodd" clip-rule="evenodd" d="M9.60665 1.66671C9.60665 1.48261 9.75589 1.33337 9.93999 1.33337C11.418 1.33337 12.6067 2.5299 12.6067 4.00004C12.6067 5.44024 11.4639 6.61314 10.0391 6.66647C10.0212 6.66715 10.0032 6.66636 9.98531 6.66413C9.96087 6.66108 9.92728 6.66054 9.89013 6.66467C9.70716 6.685 9.54236 6.55315 9.52203 6.37018C9.5017 6.18722 9.63354 6.02241 9.81651 6.00208C9.88907 5.99402 9.96437 5.9926 10.0372 5.99928C11.095 5.94761 11.94 5.07208 11.94 4.00004C11.94 2.89685 11.0486 2.00004 9.93999 2.00004C9.75589 2.00004 9.60665 1.8508 9.60665 1.66671Z" fill="#262626"/>
<path fill-rule="evenodd" clip-rule="evenodd" d="M5.11498 7.45837C6.37529 7.45837 7.65197 7.77512 8.63178 8.42951C9.50772 9.01245 9.98998 9.81496 9.98998 10.6609C9.98998 11.5067 9.50778 12.3108 8.63208 12.897L8.63201 12.8971C7.64903 13.5548 6.37068 13.8734 5.10998 13.8734C3.84943 13.8734 2.57125 13.5549 1.58831 12.8973C0.712287 12.3144 0.22998 11.5118 0.22998 10.6659C0.22998 9.82001 0.712177 9.01593 1.58789 8.42971L1.58911 8.42889L1.58911 8.42889C2.57508 7.77515 3.85456 7.45837 5.11498 7.45837ZM1.95813 8.98411C1.22094 9.47783 0.896647 10.0936 0.896647 10.6659C0.896647 11.2381 1.22087 11.8521 1.95795 12.3425L1.95868 12.343C2.80903 12.912 3.95068 13.2067 5.10998 13.2067C6.26928 13.2067 7.41093 12.912 8.26128 12.343C8.99886 11.8492 9.32331 11.2333 9.32331 10.6609C9.32331 10.0886 8.99909 9.4746 8.26201 8.98423L8.26151 8.9839C7.41466 8.4183 6.27467 8.12504 5.11498 8.12504C3.95568 8.12504 2.81209 8.41812 1.95813 8.98411Z" fill="#262626"/>
<path fill-rule="evenodd" clip-rule="evenodd" d="M10.9215 8.26C10.9619 8.08041 11.1403 7.96763 11.3199 8.0081C11.8286 8.12272 12.3218 8.32599 12.7345 8.64082C13.326 9.08498 13.6466 9.69505 13.6466 10.3299C13.6466 10.9647 13.3262 11.5747 12.7348 12.0188C12.3164 12.3397 11.8157 12.5511 11.2946 12.6596C11.1144 12.6972 10.9379 12.5815 10.9003 12.4013C10.8628 12.221 10.9784 12.0445 11.1587 12.007C11.597 11.9156 12.0024 11.7407 12.3303 11.4889L12.3333 11.4866L12.3333 11.4866C12.781 11.1508 12.98 10.728 12.98 10.3299C12.98 9.93193 12.781 9.50905 12.3333 9.17328L12.331 9.17155L12.331 9.17154C12.0106 8.92687 11.6109 8.75707 11.1734 8.65846C10.9938 8.61799 10.881 8.4396 10.9215 8.26Z" fill="#262626"/>
</svg>
