<svg width="14" height="14" viewBox="0 0 14 14" fill="none" xmlns="http://www.w3.org/2000/svg">
<path fill-rule="evenodd" clip-rule="evenodd" d="M6.66667 0.666667C3.35296 0.666667 0.666667 3.35296 0.666667 6.66667C0.666667 9.98037 3.35296 12.6667 6.66667 12.6667C9.98037 12.6667 12.6667 9.98037 12.6667 6.66667C12.6667 3.35296 9.98037 0.666667 6.66667 0.666667ZM0 6.66667C0 2.98477 2.98477 0 6.66667 0C10.3486 0 13.3333 2.98477 13.3333 6.66667C13.3333 10.3486 10.3486 13.3333 6.66667 13.3333C2.98477 13.3333 0 10.3486 0 6.66667Z" fill="#6324BB"/>
<path fill-rule="evenodd" clip-rule="evenodd" d="M12.0976 12.0976C12.2278 11.9675 12.4389 11.9675 12.569 12.0976L13.9024 13.431C14.0325 13.5611 14.0325 13.7722 13.9024 13.9024C13.7722 14.0325 13.5611 14.0325 13.431 13.9024L12.0976 12.569C11.9675 12.4389 11.9675 12.2278 12.0976 12.0976Z" fill="#6324BB"/>
</svg>
