<svg width="24" height="24" viewBox="0 0 24 24" fill="none" xmlns="http://www.w3.org/2000/svg">
<path fill-rule="evenodd" clip-rule="evenodd" d="M11.5 2.5C6.52944 2.5 2.5 6.52944 2.5 11.5C2.5 16.4706 6.52944 20.5 11.5 20.5C16.4706 20.5 20.5 16.4706 20.5 11.5C20.5 6.52944 16.4706 2.5 11.5 2.5ZM1.5 11.5C1.5 5.97715 5.97715 1.5 11.5 1.5C17.0228 1.5 21.5 5.97715 21.5 11.5C21.5 17.0228 17.0228 21.5 11.5 21.5C5.97715 21.5 1.5 17.0228 1.5 11.5Z" fill="#262626"/>
<path fill-rule="evenodd" clip-rule="evenodd" d="M19.6464 19.6464C19.8417 19.4512 20.1583 19.4512 20.3536 19.6464L22.3536 21.6464C22.5488 21.8417 22.5488 22.1583 22.3536 22.3536C22.1583 22.5488 21.8417 22.5488 21.6464 22.3536L19.6464 20.3536C19.4512 20.1583 19.4512 19.8417 19.6464 19.6464Z" fill="#262626"/>
</svg>
