<svg width="24" height="24" viewBox="0 0 24 24" fill="none" xmlns="http://www.w3.org/2000/svg">
<path fill-rule="evenodd" clip-rule="evenodd" d="M1.25 12C1.25 6.06294 6.06294 1.25 12 1.25C17.9371 1.25 22.75 6.06294 22.75 12C22.75 17.9371 17.9371 22.75 12 22.75C6.06294 22.75 1.25 17.9371 1.25 12ZM8.78461 9.9668C7.8325 10.9189 7.8325 12.4626 8.78461 13.4147C9.73673 14.3668 11.2804 14.3668 12.2325 13.4147L13.3485 12.2988C13.6414 12.0059 14.1162 12.0059 14.4091 12.2988C14.702 12.5917 14.702 13.0665 14.4091 13.3594L13.2932 14.4754C11.7553 16.0133 9.26186 16.0133 7.72395 14.4754C6.18605 12.9375 6.18605 10.444 7.72395 8.90614L10.1604 6.46967C10.4533 6.17678 10.9282 6.17678 11.2211 6.46967C11.514 6.76256 11.514 7.23744 11.2211 7.53033L8.78461 9.9668ZM15.2154 14.9129C16.1675 13.9608 16.1675 12.4171 15.2154 11.465C14.2633 10.5129 12.7196 10.5129 11.7675 11.465L10.6515 12.5809C10.3586 12.8738 9.88375 12.8738 9.59085 12.5809C9.29796 12.288 9.29796 11.8132 9.59085 11.5203L10.7068 10.4043C12.2447 8.86644 14.7381 8.86644 16.276 10.4043C17.8139 11.9422 17.8139 14.4357 16.276 15.9736L13.8396 18.4101C13.5467 18.7029 13.0718 18.7029 12.7789 18.4101C12.486 18.1172 12.486 17.6423 12.7789 17.3494L15.2154 14.9129Z" fill="black"/>
</svg>
