<svg width="24" height="24" viewBox="0 0 24 24" fill="none" xmlns="http://www.w3.org/2000/svg">
<path d="M6.27997 21.9998C8.0031 21.9998 9.39997 20.6029 9.39997 18.8798C9.39997 17.1566 8.0031 15.7598 6.27997 15.7598C4.55684 15.7598 3.15997 17.1566 3.15997 18.8798C3.15997 20.6029 4.55684 21.9998 6.27997 21.9998Z" stroke="#292D32" stroke-linecap="round" stroke-linejoin="round"/>
<path d="M20.84 16.7998V4.59985C20.84 1.99985 19.21 1.63985 17.56 2.08985L11.32 3.78985C10.18 4.09985 9.40002 4.99985 9.40002 6.29985V8.46985V9.92985V18.8699" stroke="#292D32" stroke-linecap="round" stroke-linejoin="round"/>
<path d="M17.72 19.9202C19.4431 19.9202 20.84 18.5233 20.84 16.8002C20.84 15.077 19.4431 13.6802 17.72 13.6802C15.9968 13.6802 14.6 15.077 14.6 16.8002C14.6 18.5233 15.9968 19.9202 17.72 19.9202Z" stroke="#292D32" stroke-linecap="round" stroke-linejoin="round"/>
<path d="M9.40002 9.5199L20.84 6.3999" stroke="#292D32" stroke-linecap="round" stroke-linejoin="round"/>
</svg>
